<?xml version="1.0" encoding="UTF-8"?>
<svg width="284px" height="88px" viewBox="0 0 284 88" version="1.1" xmlns="http://www.w3.org/2000/svg" xmlns:xlink="http://www.w3.org/1999/xlink">
    <!-- Generator: Sketch 53.2 (72643) - https://sketchapp.com -->
    <title>Group 8</title>
    <desc>Created with Sketch.</desc>
    <g id="Page-1" stroke="none" stroke-width="1" fill="none" fill-rule="evenodd">
        <g id="Group-8" transform="translate(0.251800, 0.175000)" fill="#194B46">
            <path d="M58.069,53.988 L55.88,53.988 L53.588,53.975 C46.258,54.061 40.856,55.279 36.96,58.009 C43.547,41.623 58.286,33.783 82.475,33.291 C80.854,43.567 72.879,53.845 58.069,53.988 L58.069,53.988 Z M32.881,82.823 C33.101,63.856 37.593,58.589 53.6,58.4 L53.642,58.4 C53.332,74.606 43.246,81.584 32.881,82.823 L32.881,82.823 Z M29.283,33.532 L31.466,33.532 L33.755,33.546 C41.061,33.46 46.448,32.246 50.336,29.522 C43.772,45.877 29.101,53.717 5.032,54.228 C6.977,43.902 14.189,33.677 29.283,33.532 L29.283,33.532 Z M54.41,4.698 C54.192,23.665 49.711,28.932 33.744,29.121 L33.705,29.121 C34.015,12.918 44.073,5.939 54.41,4.698 L54.41,4.698 Z M84.945,28.841 C71.907,28.841 61.233,30.82 52.805,34.86 C56.853,26.843 58.841,16.754 58.841,4.473 L58.841,1.13686838e-13 L56.54,0.092 C43.962,0.593 29.588,8.534 29.251,29.107 C13.418,29.265 2.041,39.909 0.266,56.227 L-2.84217094e-13,58.679 L2.466,58.679 C15.451,58.679 26.085,56.708 34.487,52.684 C30.439,60.696 28.45,70.778 28.45,83.047 L28.45,87.519 L30.751,87.428 C43.355,86.926 57.757,78.983 58.097,58.413 C74.207,58.256 86.155,47.062 87.153,31.193 L87.301,28.841 L84.945,28.841 Z" id="Fill-1"></path>
            <path d="M110.5153,55.0524 L116.4673,55.0524 C117.0953,61.6324 123.7523,64.5304 129.0783,64.5304 C135.3453,64.5304 140.4353,61.0824 140.4353,55.3644 C140.4353,50.4304 137.4593,47.2194 132.3683,45.2604 L124.1433,42.1284 C115.4493,38.7604 111.8463,34.2964 111.8463,26.6974 C111.8463,17.9264 118.8963,12.6774 128.2163,12.6774 C139.3383,12.6774 144.2733,20.1964 145.1353,27.1684 L139.1823,27.1684 C137.7723,20.9794 132.9153,18.3174 127.9813,18.3174 C122.2643,18.3174 117.8003,21.5294 117.8003,26.6204 C117.8003,31.7104 120.4623,34.1384 126.1013,36.3324 L133.4643,39.1524 C141.8453,42.3644 146.3893,46.9844 146.3893,55.2094 C146.3893,64.5304 139.1033,70.1694 129.1573,70.1694 C118.1133,70.1694 110.7493,63.4324 110.5153,55.0524" id="Fill-3"></path>
            <polygon id="Fill-5" points="154.2013 13.6184 185.9243 13.6184 185.9243 19.2574 160.1543 19.2574 160.1543 37.8204 181.2243 37.8204 181.2243 43.4594 160.1543 43.4594 160.1543 63.5894 185.9243 63.5894 185.9243 69.2284 154.2013 69.2284"></polygon>
            <path d="M213.2961,63.8254 C221.7551,63.8254 225.8291,59.5174 225.8291,53.4854 C225.8291,47.5324 221.8341,43.0694 213.3751,43.0694 L199.8241,43.0694 L199.8241,63.8254 L213.2961,63.8254 Z M211.8081,37.8994 C218.3881,37.8994 222.1481,33.9034 222.1481,28.4994 C222.1481,23.4874 218.3881,19.0214 211.8081,19.0214 L199.8241,19.0214 L199.8241,37.8994 L211.8081,37.8994 Z M193.8711,13.6184 L211.4161,13.6184 C222.0691,13.6184 228.0231,20.3534 228.0231,27.8734 C228.0231,33.8254 225.4371,37.5064 221.6791,39.6994 C227.2391,41.5804 231.7041,45.2604 231.7041,53.0164 C231.7041,62.3374 224.3411,69.2284 212.6701,69.2284 L193.8711,69.2284 L193.8711,13.6184 Z" id="Fill-7"></path>
            <path d="M247.6535,48.3342 L258.1695,21.9112 L268.7715,48.3342 L247.6535,48.3342 Z M277.1205,69.1412 L283.3855,69.1412 L260.6745,13.5312 L255.8975,13.5312 L233.2615,69.1412 L239.3725,69.1412 L245.4605,53.8452 L270.9825,53.8452 L277.1205,69.1412 Z" id="Fill-9"></path>
        </g>
    </g>
</svg>