<?xml version="1.0" encoding="UTF-8"?>
<svg width="262px" height="263px" viewBox="0 0 262 263" version="1.1" xmlns="http://www.w3.org/2000/svg" xmlns:xlink="http://www.w3.org/1999/xlink">
    <!-- Generator: Sketch 54.1 (76490) - https://sketchapp.com -->
    <title>Group</title>
    <desc>Created with Sketch.</desc>
    <g id="Page-1" stroke="none" stroke-width="1" fill="none" fill-rule="evenodd">
        <g id="Seba_desktop_screen-Copy-2" transform="translate(-1294.000000, -588.000000)" fill="#194B46">
            <g id="Group" transform="translate(1294.000000, 588.000000)">
                <path d="M174.207,161.961 L167.64,161.961 L160.764,161.919 C138.774,162.18 122.568,165.831 110.88,174.024 C130.641,124.866 174.858,101.349 247.425,99.873 C242.559,130.698 218.637,161.532 174.207,161.961 L174.207,161.961 Z M98.643,248.466 C99.303,191.565 112.779,175.764 160.8,175.194 L160.926,175.197 C159.996,223.812 129.738,244.749 98.643,248.466 L98.643,248.466 Z M87.849,100.593 L94.398,100.593 L101.265,100.638 C123.183,100.377 139.344,96.735 151.008,88.563 C131.316,137.631 87.303,161.148 15.096,162.678 C20.931,131.703 42.567,101.028 87.849,100.593 L87.849,100.593 Z M163.23,14.091 C162.576,70.992 149.133,86.793 101.232,87.36 L101.115,87.36 C102.045,38.751 132.219,17.814 163.23,14.091 L163.23,14.091 Z M254.835,86.523 C215.721,86.523 183.699,92.457 158.415,104.577 C170.559,80.526 176.523,50.262 176.523,13.416 L176.523,-8.52651283e-14 L169.62,0.273 C131.886,1.776 88.764,25.599 87.753,87.318 C40.254,87.792 6.123,119.724 0.798,168.678 L-2.55795385e-13,176.034 L7.398,176.034 C46.353,176.034 78.255,170.121 103.461,158.046 C91.317,182.085 85.35,212.331 85.35,249.138 L85.35,262.551 L92.253,262.278 C130.065,260.775 173.271,236.946 174.291,175.236 C222.621,174.765 258.465,141.183 261.459,93.576 L261.903,86.523 L254.835,86.523 Z" id="Fill-13"></path>
            </g>
        </g>
    </g>
</svg>